<?xml version="1.0" standalone="no"?>
<!DOCTYPE svg PUBLIC "-//W3C//DTD SVG 20010904//EN"
 "http://www.w3.org/TR/2001/REC-SVG-20010904/DTD/svg10.dtd">
<svg version="1.0" xmlns="http://www.w3.org/2000/svg"
 width="457.000000pt" height="1536.000000pt" viewBox="0 0 457.000000 1536.000000"
 preserveAspectRatio="xMidYMid meet">
<metadata>
Created by potrace 1.16, written by Peter Selinger 2001-2019
</metadata>
<g transform="translate(0.000000,1536.000000) scale(0.100000,-0.100000)"
fill="#000000" stroke="none">
<path d="M3170 15344 c0 -10 16 -129 35 -264 19 -135 38 -285 41 -333 l7 -88
-29 11 c-16 6 -32 17 -36 23 -4 7 -8 92 -8 190 0 111 -4 177 -10 177 -6 0 -10
-75 -10 -206 l0 -206 -32 19 c-21 12 -44 40 -63 76 -16 31 -38 60 -47 63 -13
4 -18 17 -19 47 -1 23 -4 53 -8 67 -14 46 -24 -62 -19 -201 l5 -129 -69 0
c-61 0 -68 -2 -68 -19 0 -35 -17 -32 -53 8 -46 51 -60 98 -55 182 3 50 1 64
-7 51 -5 -9 -10 -60 -10 -112 0 -80 4 -103 24 -143 l23 -48 -44 -57 c-25 -31
-57 -80 -72 -109 -31 -57 -65 -78 -171 -108 -68 -19 -130 -52 -181 -97 l-35
-31 -72 30 c-141 61 -272 123 -289 138 -14 11 -18 31 -19 87 l-1 73 -19 -42
c-22 -48 -33 -53 -49 -22 -10 17 -6 29 24 72 34 50 36 56 35 132 l-1 80 -12
-75 c-11 -71 -46 -150 -67 -150 -12 0 -11 22 6 167 12 93 13 138 6 179 -20
107 -30 96 -31 -34 0 -68 -4 -121 -8 -118 -5 3 -18 -15 -30 -39 -12 -24 -32
-51 -46 -60 -31 -20 -71 -11 -62 13 3 10 17 51 32 92 33 91 39 240 12 300
l-15 35 4 -65 c4 -52 -2 -92 -31 -200 -34 -129 -53 -166 -81 -157 -6 2 -12 97
-15 263 -5 239 -6 254 -17 194 -7 -36 -15 -114 -18 -173 -7 -112 -24 -187 -51
-222 -15 -20 -15 -20 -33 2 -23 28 -41 161 -42 319 -1 116 -1 118 -16 84 -9
-19 -18 -70 -21 -112 -2 -43 -8 -78 -13 -78 -5 0 -9 -52 -9 -115 0 -63 -4
-115 -8 -115 -14 0 -60 53 -73 85 -18 42 -14 310 5 404 19 89 31 191 22 191
-8 0 -80 -146 -115 -232 -46 -116 -65 -219 -65 -342 l1 -109 -28 55 c-34 66
-69 231 -69 320 0 71 20 157 50 221 l21 42 -26 -30 c-38 -44 -72 -104 -97
-171 -19 -52 -22 -85 -26 -281 -2 -123 -8 -223 -12 -223 -22 0 -89 94 -101
142 -11 49 -8 217 7 368 l5 55 -20 -25 c-12 -14 -33 -61 -48 -105 -24 -72 -27
-95 -27 -225 0 -127 3 -152 22 -201 12 -31 31 -64 42 -74 21 -19 20 -23 -26
-97 -23 -35 -25 -37 -55 -26 -87 30 -146 139 -154 286 l-5 87 16 -50 c33 -110
49 -142 89 -182 48 -48 79 -59 45 -15 -11 15 -44 61 -71 102 l-51 75 4 115 c3
109 5 119 40 190 20 41 51 100 68 130 l32 55 -37 -40 c-52 -58 -114 -165 -137
-237 -24 -77 -34 -233 -19 -311 11 -61 36 -121 71 -174 l21 -31 -78 -23 c-115
-34 -209 -101 -285 -202 -79 -105 -109 -171 -114 -250 l-4 -62 44 128 c24 70
46 128 50 127 3 0 13 0 21 0 8 0 15 -7 15 -17 0 -10 20 3 58 39 63 60 112 89
182 108 55 15 140 29 140 23 0 -3 -39 -46 -86 -96 -140 -149 -205 -253 -203
-326 0 -19 13 0 50 73 l51 99 17 -27 18 -27 39 53 c42 56 102 102 147 112 24
6 27 4 27 -19 0 -15 5 -35 10 -45 8 -14 2 -37 -24 -97 -51 -118 -68 -179 -61
-213 10 -44 23 -37 30 18 19 141 35 191 75 227 l23 20 -7 -38 c-5 -27 -4 -37
3 -32 6 3 11 16 11 28 1 21 2 20 26 -8 37 -44 76 -112 84 -148 6 -23 8 -26 9
-10 2 34 18 37 65 9 65 -38 131 -118 182 -220 57 -114 53 -130 -42 -175 -101
-48 -82 -67 33 -32 35 11 63 18 63 17 0 -2 -7 -17 -16 -35 -28 -55 -30 -140
-5 -206 39 -104 80 -175 139 -243 51 -58 61 -77 76 -137 23 -96 70 -189 111
-221 43 -33 75 -98 75 -155 1 -24 7 -57 14 -74 11 -27 10 -33 -10 -60 -46 -62
-49 -142 -8 -251 15 -40 15 -41 -25 -115 -22 -41 -49 -103 -60 -139 -11 -36
-33 -108 -50 -161 -61 -194 -61 -353 0 -509 16 -41 29 -83 29 -92 0 -9 -14
-50 -30 -92 -33 -82 -60 -233 -60 -336 0 -80 22 -185 49 -238 l20 -39 -30 -29
c-50 -48 -125 -168 -158 -253 -42 -110 -113 -355 -155 -536 -110 -481 -328
-1657 -378 -2040 -16 -124 -15 -784 1 -990 14 -171 66 -433 172 -870 44 -181
100 -427 125 -545 75 -356 114 -494 184 -645 65 -141 122 -185 242 -185 l66 0
-1 -102 c-1 -114 15 -164 72 -237 56 -71 75 -153 62 -276 -15 -152 16 -239
111 -315 102 -80 128 -134 147 -313 9 -83 18 -114 62 -208 30 -67 52 -132 56
-163 3 -30 17 -70 33 -96 21 -35 30 -68 39 -145 33 -272 95 -674 122 -788 31
-134 40 -215 59 -532 7 -117 17 -206 27 -231 11 -31 14 -73 11 -165 -4 -149
-11 -166 -158 -389 -128 -192 -127 -190 -98 -190 27 0 130 104 214 215 61 81
99 105 166 105 23 0 59 4 78 9 20 4 45 5 57 0 11 -4 49 -47 84 -95 104 -144
179 -235 189 -229 6 4 10 15 10 26 0 27 -56 149 -118 257 -110 191 -129 277
-112 507 15 210 111 981 155 1255 19 119 35 238 35 265 0 41 5 54 30 80 24 25
33 48 45 110 14 73 96 382 152 575 24 84 26 86 113 170 49 47 96 101 106 120
12 25 20 76 25 176 5 78 13 153 18 166 5 14 30 56 55 93 78 117 101 209 82
323 -5 23 -4 42 1 40 23 -7 155 56 182 87 34 40 104 247 181 545 61 234 96
342 220 685 166 460 220 636 255 835 9 52 31 158 50 235 51 211 58 282 50 510
-3 110 -10 229 -15 265 -5 36 -21 164 -35 285 -14 121 -39 296 -55 388 -51
284 -179 850 -221 974 -25 75 -62 229 -100 423 -140 706 -162 771 -274 831
-32 17 -43 29 -39 39 3 8 15 51 26 95 30 116 22 314 -17 435 -31 95 -54 145
-97 208 l-30 44 26 78 c53 160 24 356 -101 680 -34 88 -54 125 -85 156 -34 35
-39 46 -34 70 4 16 8 103 11 194 5 199 16 255 88 425 30 72 58 146 62 165 8
38 31 70 51 70 21 0 63 59 73 103 6 23 26 89 46 147 47 142 46 165 -10 231
-25 29 -45 56 -45 60 0 5 26 -1 57 -12 78 -27 87 -19 26 22 -30 20 -49 40 -45
46 4 5 28 13 55 17 66 10 59 26 -13 26 -69 0 -70 2 -44 91 33 110 137 276 155
248 6 -9 9 0 9 26 1 47 28 112 59 140 l23 19 19 -24 c69 -90 73 -100 79 -189
6 -84 6 -85 14 -38 17 96 -20 249 -79 332 -34 48 -45 97 -25 110 5 3 50 -15
101 -40 50 -26 93 -44 96 -41 7 6 -72 63 -128 91 -47 24 -76 51 -66 61 8 9 92
-21 142 -50 86 -51 146 -142 211 -321 33 -89 33 -89 33 -45 1 119 -46 218
-155 326 l-81 81 65 -19 c36 -9 84 -27 106 -39 23 -12 67 -35 99 -52 78 -40
115 -79 123 -128 9 -52 28 -38 22 15 -7 59 -33 109 -90 172 -100 109 -230 162
-416 171 -132 7 -127 -8 -47 153 77 155 105 243 105 332 -1 40 -7 87 -15 103
-13 30 -13 29 -15 -30 -1 -58 -26 -226 -29 -195 0 8 -14 -12 -29 -45 -19 -40
-48 -78 -86 -113 -32 -28 -55 -52 -51 -52 20 0 75 39 112 79 23 25 42 41 43
34 0 -27 -50 -123 -85 -162 l-37 -41 -60 55 c-33 31 -87 69 -120 86 -32 16
-58 33 -56 37 2 4 25 52 52 106 40 80 51 111 53 160 l4 61 -36 -114 c-20 -63
-38 -119 -41 -123 -12 -18 -24 -6 -24 25 l0 32 -26 -45 c-37 -65 -63 -90 -96
-90 -34 0 -34 3 -4 71 60 137 71 317 27 444 -11 33 -19 49 -16 35 43 -227 21
-439 -54 -519 -47 -50 -52 -36 -16 42 37 77 58 163 46 186 -5 8 -11 -2 -15
-30 -7 -41 -8 -43 -22 -25 -8 11 -14 38 -15 60 -1 60 -7 34 -18 -81 -7 -79
-15 -110 -31 -134 -12 -16 -24 -28 -26 -26 -2 2 -31 149 -65 328 -56 303 -69
360 -69 313z m-134 -711 c-2 -2 -11 -1 -20 3 -13 5 -16 20 -15 78 l1 71 19
-75 c10 -41 17 -76 15 -77z m1044 -260 c85 -20 173 -63 233 -114 73 -63 77
-84 7 -38 -90 61 -206 99 -329 110 -113 10 -153 28 -129 57 15 17 113 11 218
-15z m-3385 -95 c3 -3 3 -17 0 -30 -6 -24 -9 -25 -93 -25 -102 1 -175 -22
-252 -77 -28 -20 -50 -34 -50 -31 0 3 19 26 42 51 71 77 192 126 295 120 29
-1 55 -5 58 -8z"/>
<path d="M3872 15258 c-6 -6 5 -36 36 -90 25 -45 47 -77 49 -71 2 6 -14 46
-35 91 -27 54 -43 77 -50 70z"/>
<path d="M4010 15216 c0 -2 24 -19 54 -39 230 -153 383 -339 453 -552 12 -38
20 -54 17 -35 -33 209 -261 516 -451 605 -48 23 -73 30 -73 21z"/>
<path d="M3795 15054 c0 -165 -6 -191 -77 -343 -22 -46 -37 -85 -35 -88 11
-11 69 78 92 141 44 124 59 311 32 400 -10 34 -12 19 -12 -110z"/>
<path d="M493 15085 c-35 -8 -86 -26 -114 -41 -54 -30 -122 -105 -101 -112 6
-2 12 -12 12 -23 0 -10 3 -19 8 -19 4 0 38 24 77 52 73 54 76 74 5 38 -23 -12
-44 -19 -46 -17 -12 12 71 67 129 86 51 17 119 52 97 50 -3 0 -33 -7 -67 -14z"/>
<path d="M4186 14989 c4 -8 36 -51 71 -97 68 -89 98 -143 149 -267 18 -44 33
-72 34 -62 1 70 -82 258 -154 347 -40 50 -122 114 -100 79z"/>
<path d="M4091 14763 c1 -169 1 -176 16 -143 32 72 26 294 -8 316 -5 3 -9 -75
-8 -173z"/>
<path d="M222 14894 c-86 -68 -182 -261 -184 -367 -1 -49 8 -57 17 -15 24 120
80 243 154 342 28 36 49 66 48 66 -1 0 -17 -12 -35 -26z"/>
<path d="M416 14842 c-31 -61 -56 -157 -56 -213 0 -53 16 -113 33 -127 11 -9
13 16 12 131 0 122 3 150 22 200 12 31 20 57 17 57 -2 0 -15 -22 -28 -48z"/>
<path d="M2870 14868 c0 -3 -5 -30 -10 -59 -8 -38 -7 -74 1 -121 11 -66 29
-93 29 -43 0 25 1 25 25 9 14 -9 25 -13 25 -9 0 17 -54 211 -62 220 -4 5 -8 6
-8 3z"/>
<path d="M233 14827 c-87 -97 -173 -289 -173 -387 0 -63 11 -140 20 -140 4 0
5 30 2 68 -8 112 18 189 130 385 51 88 59 116 21 74z"/>
<path d="M4165 14452 c44 -15 95 -36 114 -46 52 -28 124 -105 154 -166 14 -30
26 -47 27 -38 0 9 2 23 5 31 4 8 -12 37 -35 65 -79 101 -182 162 -295 176 -47
6 -46 5 30 -22z"/>
<path d="M9 14423 c-15 -38 -4 -242 16 -318 14 -50 63 -161 65 -145 0 3 -8 28
-19 55 -33 89 -44 180 -38 311 5 123 -2 152 -24 97z"/>
<path d="M4536 14418 c-10 -30 -45 -282 -41 -287 13 -12 25 23 44 129 11 63
22 126 23 139 3 25 -19 42 -26 19z"/>
<path d="M275 14394 c-39 -20 -91 -70 -120 -115 -25 -38 -61 -147 -52 -155 3
-3 8 10 12 28 18 81 75 163 153 219 57 40 60 51 7 23z"/>
</g>
</svg>
