<?xml version="1.0" encoding="UTF-8" standalone="no"?>
<svg
   version="1.0"
   width="3221.2366pt"
   height="1397.1305pt"
   viewBox="0 0 3221.2365 1397.1305"
   preserveAspectRatio="xMidYMid"
   id="svg8"
   sodipodi:docname="Rotaria_macrura.svg"
   xmlns:inkscape="http://www.inkscape.org/namespaces/inkscape"
   xmlns:sodipodi="http://sodipodi.sourceforge.net/DTD/sodipodi-0.dtd"
   xmlns="http://www.w3.org/2000/svg"
   xmlns:svg="http://www.w3.org/2000/svg">
  <defs
     id="defs12" />
  <sodipodi:namedview
     id="namedview10"
     pagecolor="#ffffff"
     bordercolor="#000000"
     borderopacity="0.25"
     inkscape:showpageshadow="2"
     inkscape:pageopacity="0.0"
     inkscape:pagecheckerboard="0"
     inkscape:deskcolor="#d1d1d1"
     inkscape:document-units="pt"
     showgrid="false" />
  <metadata
     id="metadata2">
Created by potrace 1.16, written by Peter Selinger 2001-2019
</metadata>
  <g
     transform="matrix(0.08996245,-0.04366644,-0.04366644,-0.08996245,610.3512,1476.334)"
     fill="#000000"
     stroke="none"
     id="g6">
    <path
       d="m 2084,15327 c -16,-34 -19,-35 -69,-34 -29,1 -59,-4 -67,-11 -11,-9 -17,-9 -26,0 -10,10 -17,10 -32,0 -11,-7 -45,-22 -75,-33 -33,-12 -56,-28 -60,-40 -5,-15 -10,-17 -25,-9 -10,6 -27,10 -36,10 -15,0 -15,-3 4,-23 29,-31 28,-51 -5,-76 l -26,-21 21,-23 c 29,-30 28,-51 -3,-71 -29,-19 -35,-52 -7,-41 60,24 74,27 85,16 14,-14 23,-303 10,-351 -6,-22 -16,-36 -29,-38 -10,-2 -53,-19 -95,-38 l -77,-34 -56,25 c -31,13 -76,30 -100,36 -36,9 -43,15 -43,35 0,13 -15,40 -33,60 -20,23 -30,44 -27,55 3,11 4,19 4,19 -1,0 -52,-15 -113,-34 -70,-21 -117,-30 -125,-25 -8,5 -31,9 -51,9 -20,0 -39,4 -43,9 -3,6 -19,4 -40,-5 -19,-8 -45,-14 -57,-14 -13,0 -36,-9 -53,-20 -49,-32 -69,-24 -110,45 -9,15 -16,10 -48,-39 -25,-38 -45,-57 -64,-62 -79,-17 -101,-30 -166,-97 l -69,-70 -63,12 c -35,7 -68,10 -74,7 -6,-4 -8,-20 -4,-36 9,-46 -4,-78 -52,-129 -48,-51 -65,-86 -65,-132 0,-17 -5,-29 -13,-29 -7,0 -25,-13 -40,-28 -24,-25 -28,-38 -32,-111 -3,-51 -11,-90 -20,-104 -27,-39 -17,-107 17,-107 16,0 18,-4 11,-22 -15,-42 -8,-96 15,-121 12,-13 22,-35 22,-49 0,-32 29,-46 47,-23 6,10 16,14 22,10 21,-12 11,-44 -18,-61 -24,-14 -28,-21 -20,-35 5,-10 9,-29 9,-42 0,-34 25,-54 45,-37 20,16 28,8 50,-53 23,-61 67,-99 109,-95 27,3 31,6 28,29 -2,19 3,28 23,37 29,13 69,16 63,5 -28,-54 -41,-95 -41,-129 0,-50 8,-64 38,-64 29,0 85,-51 85,-79 0,-27 18,-27 46,0 30,28 127,32 132,5 3,-13 7,-14 24,-5 17,9 24,8 32,-2 6,-8 21,-13 34,-11 46,7 91,-19 158,-91 90,-97 150,-183 164,-236 22,-83 15,-196 -19,-313 -36,-122 -72,-337 -96,-578 -16,-154 -22,-182 -44,-220 -50,-86 -61,-145 -96,-501 -8,-88 -26,-196 -40,-250 -14,-52 -30,-119 -36,-149 -5,-30 -26,-93 -45,-140 -49,-117 -61,-155 -95,-308 -16,-73 -38,-159 -49,-190 -108,-300 -233,-830 -282,-1195 -29,-214 -32,-579 -5,-732 63,-361 205,-732 450,-1177 139,-254 167,-290 294,-384 76,-57 118,-105 160,-189 24,-47 25,-54 17,-135 -20,-201 0,-377 57,-495 l 32,-66 -13,-107 c -19,-150 -16,-404 4,-461 23,-62 20,-163 -9,-358 -25,-167 -32,-326 -17,-351 5,-7 31,-18 58,-25 l 49,-12 6,-100 c 4,-55 7,-267 8,-471 1,-415 4,-460 32,-467 17,-5 19,-17 19,-144 0,-76 9,-234 19,-351 17,-194 21,-215 40,-229 21,-14 21,-20 21,-383 0,-360 0,-369 20,-375 18,-6 20,-15 20,-91 0,-174 -33,-382 -75,-471 -16,-33 -25,-69 -25,-100 0,-39 -8,-62 -36,-109 -119,-194 -163,-286 -164,-340 0,-48 9,-47 50,5 35,45 107,103 157,130 20,10 24,8 37,-16 21,-43 35,-125 46,-283 11,-172 18,-210 35,-210 17,0 30,-42 49,-150 24,-140 51,-185 105,-174 23,5 30,2 36,-15 16,-50 104,-32 116,24 4,17 7,26 8,21 0,-5 10,-1 21,9 41,37 15,145 -46,190 -19,13 -57,165 -54,210 6,71 4,207 -4,296 l -9,96 32,-5 c 34,-5 40,8 15,29 -13,10 -17,10 -24,-2 -6,-9 -12,-10 -19,-4 -13,14 -30,104 -21,110 5,3 72,-56 150,-130 155,-148 180,-167 180,-136 0,45 -47,166 -116,298 -129,245 -143,315 -125,601 12,176 14,188 37,213 22,23 24,34 24,110 0,46 7,212 16,369 15,256 19,287 36,302 18,16 19,33 16,363 -3,312 -1,347 13,356 9,5 19,19 22,31 4,13 11,158 17,323 11,316 26,566 39,625 6,29 11,34 29,32 39,-6 45,34 47,288 l 2,235 52,200 c 37,144 55,233 62,320 10,109 15,129 54,215 65,142 92,226 139,428 24,100 45,184 47,185 108,83 282,187 372,223 68,26 68,27 141,138 155,232 312,590 488,1106 61,181 76,251 98,475 39,377 14,597 -135,1185 -36,140 -94,388 -130,550 -36,162 -81,363 -100,445 -19,83 -42,188 -50,235 -19,107 -35,331 -28,391 4,36 0,56 -21,97 -34,68 -60,165 -91,352 -16,95 -36,176 -51,210 -24,53 -34,105 -52,291 -5,48 -18,105 -30,130 -11,24 -35,96 -52,159 -31,109 -32,117 -22,195 20,144 22,188 14,295 -8,96 -11,109 -40,149 -18,24 -32,49 -31,55 1,6 23,31 51,56 41,36 52,42 66,33 14,-9 23,-5 52,23 43,43 138,104 162,104 10,0 25,12 35,27 10,14 44,46 76,69 50,37 61,42 77,31 17,-10 24,-7 53,21 18,17 46,53 62,80 21,35 41,53 79,72 35,16 56,34 67,56 l 16,33 -39,38 c -39,37 -68,81 -68,103 0,7 12,9 34,5 30,-6 35,-4 41,17 4,12 22,46 41,73 32,48 33,54 40,180 l 6,130 -36,54 c -20,29 -36,56 -36,60 0,4 -14,12 -30,18 -20,8 -35,24 -46,48 -20,48 -15,67 19,83 38,19 25,32 -33,32 -27,0 -52,5 -55,11 -4,6 -39,25 -79,43 -68,31 -105,60 -93,72 3,3 15,1 26,-6 35,-18 24,6 -19,43 -61,52 -128,85 -139,69 -7,-11 -22,-11 -84,2 -42,9 -115,16 -161,16 -75,0 -87,3 -98,20 -10,16 -19,18 -50,13 -21,-3 -65,0 -98,7 -73,15 -107,5 -145,-46 -38,-49 -66,-74 -85,-74 -10,0 -30,-12 -45,-26 -19,-17 -35,-24 -49,-20 -11,3 -36,6 -55,6 h -34 l 6,89 c 4,62 2,91 -6,94 -7,2 -4,45 12,147 26,164 21,156 144,221 42,23 77,47 77,55 0,26 -23,62 -45,72 -13,6 -26,23 -30,40 -12,57 -29,62 -121,40 l -81,-20 -36,23 c -29,19 -37,30 -37,55 0,17 -7,37 -15,44 -12,10 -17,6 -31,-23 z"
       id="path4" />
  </g>
  <g
     transform="matrix(0.07155202,-4.972168e-4,-6.6212687e-4,-0.08551426,1201.9742,1326.1428)"
     fill="#000000"
     stroke="none"
     id="g299"
     inkscape:transform-center-x="436.82455"
     inkscape:transform-center-y="-31.026271">
    <path
       d="m 4868.1043,15281.959 c -5.7267,-6.599 -15.5086,-22.935 -20.9865,-36.581 -5.4779,-13.646 -21.0578,-46.616 -35.1082,-74.68 -32.1558,-65.866 -59.1174,-73.884 -225.2249,-59.413 -169.202,13.698 -228.6732,30.209 -267.905,76.328 -34.7858,40.765 -141.7052,111.04 -156.6088,103.121 -5.2998,-2.614 -8.7859,-16.41 -7.1855,-29.583 3.7343,-21.366 0.4263,-24.13 -26.4639,-22.113 -43.8211,3.288 -40.4069,-21.066 8.0731,-55.83 87.7477,-61.808 86.858,-88.851 -6.4059,-172.222 l -58.868,-52.816 -66.3001,37.105 c -71.9555,40.541 -164.6127,56.53 -189.1914,33.272 -16.9668,-17.805 -7.7546,-25.525 48.2665,-36.756 31.3363,-7.372 57.0525,-20.346 72.3825,-36.557 18.78,-21.491 19.349,-25.55 4.0545,-18.378 -67.2607,28.14 -280.1057,56.158 -282.2403,36.236 -1.174,-10.956 80.5988,-44.202 139.501,-56.653 67.7589,-14.121 83.1602,-20.297 81.8795,-32.25 -0.8539,-7.968 -29.8427,-6.797 -100.1271,2.492 -54.4561,7.098 -106.138,11.979 -114.4256,9.589 -40.4423,-12.027 -7.2923,-30.58 111.6502,-63.601 56.5901,-15.291 79.1405,-39.072 51.5386,-53.067 -8.5011,-4.383 -44.3194,-10.732 -80.9201,-15.015 -36.494,-3.286 -75.4067,-10.408 -86.8956,-14.566 -33.6843,-14.542 0.7105,-40.217 70.6748,-52.494 l 62.1034,-10.684 -0.9611,-37.079 c -0.8544,-36.083 -1.957,-37.004 -50.1534,-46.441 -61.5704,-12.451 -69.2182,-36.979 -14.8688,-45.073 24.6849,-3.86 40.762,-13.099 48.1245,-28.712 10.7058,-21.889 28.7714,-199.963 20.0568,-206.338 -2.2053,-1.843 -33.8258,21.615 -70.6748,52.494 -37.9516,29.958 -74.3383,55.782 -81.3098,56.305 -25.8943,1.942 -15.4732,-31.974 22.1936,-73.959 36.7777,-40.915 36.6709,-41.911 16.1473,-55.432 -10.8132,-7.222 -25.2899,-11.156 -31.052,-8.716 -4.7662,2.366 -32.6872,41.612 -60.9638,86.909 -29.9482,48.435 -72.6301,99.833 -102.152,124.138 -60.0397,48.684 -153.9057,90.869 -213.6618,95.352 l -41.9359,2.142 36.1019,-37.851 c 84.6527,-90.694 132.2429,-152.501 151.8762,-194.138 11.3817,-24.952 18.1038,-46.542 14.7958,-49.306 -3.308,-2.764 -23.6176,13.821 -45.0653,38.524 -57.5496,62.555 -109.3022,85.515 -113.1444,49.656 -2.1345,-19.921 -2.1345,-19.921 -36.9562,1.769 -19.8474,11.53 -62.4585,44.849 -95.4305,74.433 -84.3684,74.607 -247.5578,163.161 -308.3098,167.719 -40.8332,3.063 -30.4829,-12.774 33.6118,-51.722 56.5542,-34.365 169.875,-157.333 155.5404,-169.31 -3.308,-2.764 -33.2568,17.556 -67.4381,45.223 -96.782,80.559 -122.4988,65.419 -50.5444,-31.351 l 41.1524,-56.304 -41.5085,34.241 c -65.5884,53.116 -209.1793,137.187 -300.4844,175.164 -86.4322,36.607 -196.0557,62.905 -197.6567,47.964 -0.5336,-4.98 26.783,-31.128 61.9603,-58.869 69.2519,-56.404 165.8912,-157.034 164.2903,-171.975 -0.6404,-5.976 -18.6026,4.408 -39.8014,22.064 -73.9114,59.765 -109.3028,57.4 -68.8975,-5.876 39.6228,-61.21 4.7297,-49.555 -71.6713,24.455 -76.5077,73.013 -164.8958,128.844 -255.063,158.703 -75.655,24.754 -156.7525,26.822 -184.3191,3.788 -25.3612,-21.191 -4.9448,-36.78 68.7897,-51.349 35.32,-7.67 83.7292,-24.355 108.4495,-37.255 50.3297,-26.87 118.8346,-90.246 131.5677,-121.324 7.9315,-19.672 6.8289,-20.594 -11.9158,-8.143 -10.3149,6.799 -34.5015,24.679 -52.926,40.118 -32.403,25.525 -78.2513,38.002 -94.7913,24.181 -4.5173,-4.681 11.0615,-27.94 35.3902,-53.863 48.5508,-52.843 30.3752,-44.45 -70.0349,30.356 -86.5384,63.726 -159.4545,95.302 -232.1577,100.757 -85.6503,6.426 -193.9588,-20.591 -174.2895,-43.153 2.6676,-3.212 32.9012,-11.505 69.1104,-20.246 107.9518,-23.16 274.3778,-118.985 270.5356,-154.844 -2.2413,-20.918 -27.9221,-16.983 -112.4692,18.479 -85.543,35.536 -143.9829,42.933 -165.3604,21.443 -12.4494,-13.123 -11.8804,-17.182 2.7738,-30.331 9.1055,-8.716 33.3635,-16.56 52.2863,-17.98 50.7926,-3.81 79.6033,-16.013 77.8957,-31.95 -1.174,-10.957 -22.3021,-11.38 -103.8619,-4.257 -107.3474,10.062 -146.9359,6.004 -149.1772,-14.914 -1.7076,-15.937 41.0462,-29.185 104.7859,-33.968 24.8984,-1.868 42.6117,-5.205 39.3038,-7.969 -2.3121,-2.839 -60.0055,-16.584 -127.7649,-30.577 -233.2277,-49.776 -343.3506,-93.726 -468.0934,-189.796 -67.8314,-52.144 -77.293,-65.491 -45.4231,-67.882 23.9024,-1.794 62.673,13.371 127.8008,49.652 59.8279,33.667 265.0279,121.692 280.9629,120.497 18.9227,-1.42 -22.1252,-56.577 -80.8864,-108.397 -28.8826,-25.948 -57.303,-56.95 -61.6782,-69.675 -10.5289,-23.308 -39.2335,-38.224 -126.2005,-62.826 -103.5423,-29.382 -272.1775,-132.2 -276.0197,-168.059 -1.9211,-17.929 16.6461,-13.298 157.7142,38.372 116.881,41.435 173.4717,54.259 171.7641,38.321 -1.8144,-16.933 -49.2642,-47.512 -130.3269,-82.597 -84.264,-36.854 -159.2804,-90.467 -161.8418,-114.373 -2.348,-21.913 8.9274,-19.747 79.2483,18.153 84.1219,44.897 109.305,55.056 108.3445,46.092 -0.4269,-3.985 -22.0532,-18.427 -46.5606,-31.65 -50.0107,-26.37 -171.3034,-127.72 -173.1178,-144.653 -2.1345,-19.921 18.6379,-13.447 96.5707,29.906 79.0355,44.274 138.2231,71.965 118.3752,55.38 -5.5133,-4.607 -45.7781,-33.716 -88.1416,-63.673 -57.5872,-40.863 -86.8967,-70.795 -120.4394,-121.495 -25.077,-37.277 -42.969,-73.086 -40.835,-81.279 2.134,-8.193 16.5747,-23.333 31.5491,-33.493 32.6164,-23.533 36.8136,-21.84 144.1981,43.402 71.8505,42.805 96.9269,51.968 94.7923,32.047 -0.6403,-5.976 -50.9004,-53.414 -111.867,-107.077 -60.8598,-52.666 -111.1199,-100.104 -111.7603,-106.08 -2.6681,-24.902 21.0922,-18.652 82.5564,20.916 89.493,57.547 128.6906,76.696 135.6975,67.134 3.5568,-4.283 -10.9912,-18.253 -31.4081,-30.779 -64.4521,-39.344 -185.4959,-147.74 -195.3491,-174.111 -9.9599,-27.367 2.6311,-50.402 20.736,-40.715 6.2958,2.54 32.1906,28.711 58.2989,56.875 89.1026,100.752 142.6342,103.764 64.7003,4.183 -104.7893,-134.718 -123.3228,-232.732 -21.8774,-119.853 29.7365,33.916 55.738,61.084 56.5205,59.017 0.8892,-1.071 -10.707,-34.34 -26.8206,-72.29 -15.2243,-39.021 -25.9313,-73.361 -22.3745,-77.644 2.5609,-4.208 25.9656,8.093 52.1093,27.217 25.1478,19.199 47.3431,29.583 48.6946,23.457 1.3515,-6.126 -9.4976,-32.422 -24.3304,-58.42 -14.9396,-26.993 -26.4291,-59.266 -25.8247,-72.364 0.9241,-38.225 27.9923,-29.211 51.1488,18.252 l 21.7336,43.553 2.7024,-40.366 c 2.525,-23.283 -3.736,-62.977 -14.3362,-96.32 -21.0938,-65.691 -17.5016,-79.014 16.218,-73.511 28.6332,4.88 31.8699,-2.391 57.1923,-140.846 38.446,-212.738 38.2634,-448.683 -0.1898,-601.431 -25.7185,-99.483 -108.3136,-280.046 -289.5809,-631.932 C 878.36983,10840.01 832.73213,10713.907 808.71849,10489.79 789.57892,10320.532 770.79717,10257.68 705.9525,10149.083 529.66603,9853.0519 254.02884,9248.188 163.7842,8958.7542 84.033097,8701.6678 44.366502,8350.2026 63.923985,8073.6166 71.426909,7965.6168 80.140346,7915.763 110.62109,7816.0802 l 23.65188,-79.0889 -48.093554,-205.241 C 17.84532,7240.6727 -8.3011753,7080.977 -45.228812,6736.3348 -78.95463,6421.575 -95.819789,6151.7379 -90.344683,6024.8127 c 1.706512,-40.2913 19.381104,-203.2747 40.470407,-362.4979 49.68265296,-370.2177 58.9280394,-499.4339 60.806433,-837.9508 2.726026,-639.8052 30.963245,-872.8628 136.740063,-1159.9337 66.08382,-179.6684 210.77283,-487.7322 294.39307,-625.5406 71.49153,-119.8291 119.89852,-248.9712 170.93605,-456.6291 62.3832,-251.6847 135.68741,-438.9234 272.33873,-700.1963 130.96053,-248.7971 271.34783,-447.0931 383.10423,-537.8125 106.1009,-87.2827 337.5468,-204.0512 498.0337,-252.2387 90.4873,-26.8705 323.2156,-47.3432 415.66,-37.2094 33.5062,3.5107 105.3561,18.2018 159.9549,31.1749 54.7056,13.9692 105.6763,21.19 114.3195,17.5293 8.6433,-3.6607 17.464,-24.4041 20.2024,-45.6953 2.7384,-21.2912 7.5394,-60.81063 11.5226,-89.22378 4.0899,-27.41708 23.9715,-104.21491 45.1338,-169.05983 67.0792,-207.85735 80.132,-264.06119 106.0936,-452.76837 31.5452,-230.29348 40.899,-274.170809 62.4534,-297.877752 29.664,-32.348029 61.9968,-11.679892 111.7952,68.926932 47.3796,76.77197 96.2539,195.60327 137.1967,334.1072 14.2998,49.1313 40.9069,119.42906 58.9056,156.23385 18.1055,37.80087 75.1607,158.02656 126.169,268.6651 51.0084,110.63853 96.0052,202.65055 99.3131,205.41455 3.308,2.7641 89.8475,-4.7326 191.8951,-17.4092 326.9505,-40.5948 480.8939,-28.0464 768.6143,61.8205 226.3988,70.3696 298.8183,109.116 480.117,255.1632 323.2218,261.9138 610.6619,564.6674 766.2461,808.0317 25.3972,40.266 75.0534,128.9162 110.5172,197.5454 122.7538,236.7907 156.7588,282.4354 377.3275,513.8957 25.0056,27.2423 77.2582,102.6446 114.2869,167.1401 154.2686,268.5651 248.283,527.5936 337.7474,931.5514 46.5286,209.3747 48.3784,217.2686 100.7775,509.5418 78.9366,436.8782 134.8555,649.5648 228.4778,867.4553 152.5986,356.0456 250.1007,713.2126 315.5212,1155.1212 23.6923,164.9003 24.6529,173.8649 10.7497,390.7858 -8.0006,122.0943 -26.6706,313.2667 -41.8208,424.8524 l -28.4512,202.9511 21.4538,284.5541 c 30.5976,407.3701 24.0912,543.4095 -40.7793,921.7952 -41.7534,238.0879 -65.7609,323.228 -190.1037,661.8959 -58.9348,162.0626 -108.3018,310.3543 -109.2618,329.5039 -1.9559,19.2243 4.8758,139.2017 12.3478,265.156 25.2618,385.68 -0.4859,604.494 -111.3479,947.171 -80.8437,248.049 -101.3297,337.945 -119.3952,516.019 -21.0882,215.452 -16.8534,320.563 23.9125,504.264 35.1099,159.023 44.2873,188.457 57.2344,187.486 4.9797,-0.374 9.7813,-11.779 12.2709,-26.023 4.4454,-33.468 25.0045,-28.986 32.9371,7.57 5.5493,23.681 -3.8747,113.752 -17.5678,163.979 -2.2408,7.197 1.3874,12.949 7.363,12.501 4.9797,-0.374 14.0139,-19.125 17.7482,-40.491 13.2302,-73.286 83.2287,-150.832 88.6718,-100.032 1.174,10.957 -10.3492,72.066 -25.4292,137.459 -26.8879,114.474 -29.7679,171.923 -11.058,196.626 16.1843,19.871 35.3913,2.365 77.3969,-74.085 21.7319,-40.789 45.3136,-73.685 51.2892,-74.133 21.9105,-1.644 5.1234,75.925 -35.1391,159.273 -40.9384,86.41 -44.3171,101.725 -30.16,130.785 16.5758,32.895 49.299,10.359 149.1036,-107.578 56.2334,-65.468 102.0099,-116.095 102.4368,-112.11 2.1345,19.921 -50.8612,134.346 -91.9422,200.686 -64.4492,101.227 -69.7131,117.687 -47.9447,124.087 19.6699,5.552 39.1257,-19.001 71.3854,-92.711 74.4428,-167.243 97.3134,-188.036 97.2443,-85.614 0.2145,58.22 1.5307,61.134 18.7104,52.816 36.1378,-18.776 51.8593,-21.964 53.0333,-11.007 0.7471,6.972 -41.9702,67.41 -95.9983,134.721 -88.3871,112.06 -111.1149,152.924 -85.2206,150.981 4.9796,-0.373 43.8918,-21.366 87.3568,-46.717 79.3893,-46.12 101.9756,-50.826 87.5708,-16.611 -10.3857,24.877 -45.1361,56.603 -109.5864,101.602 -34.5015,24.678 -51.6099,43.031 -51.8942,59.117 -1.5644,32.249 24.8989,26.247 86.3615,-18.528 111.6142,-82.676 145.0496,-61.086 48.5525,31.5 -32.7586,31.577 -56.9806,58.496 -55.7712,60.413 2.2053,1.843 33.4702,-15.564 68.292,-37.254 47.0217,-29.634 67.1893,-38.176 76.0105,-30.805 15.544,13.895 -16.0051,47.389 -100.9785,106.98 -67.2247,47.215 -92.4427,74.209 -78.2148,85.191 4.4106,3.685 45.4574,2.614 91.1636,-1.819 45.5995,-5.429 83.7652,-5.281 84.2988,-0.3 2.1345,19.921 -31.229,36.482 -115.5985,54.86 -85.3656,18.454 -105.2129,29.984 -103.1137,58.945 2.2412,20.917 28.3136,30.006 97.3178,36.878 37.5966,4.208 70.4271,10.782 73.9485,15.538 6.9362,8.516 -37.3826,25.898 -114.6739,44.75 -92.0169,21.965 -62.4585,44.85 108.0961,81.254 110.8694,22.808 107.5261,29.084 -34.3937,81.903 -151.6656,55.558 -161.1267,70.325 -43.5351,71.544 40.1575,0 76.7582,4.282 83.3742,9.81 18.7452,15.663 -56.1987,28.314 -177.347,31.379 -98.1352,2.342 -114.8526,5.604 -118.4448,18.927 -4.268,16.385 10.1734,29.359 93.2639,83.37 l 30.1274,18.826 -25.7162,12.974 c -28.704,13.198 -62.3169,8.692 -127.5868,-19.546 -24.1872,-10.235 -48.8367,-15.414 -54.3854,-10.981 -16.7528,12.301 9.3909,31.426 62.9938,44.474 52.7137,14.118 159.4932,64.344 160.7739,76.297 2.0278,18.925 -109.3741,47.365 -244.2874,62.507 -171.5495,19.899 -177.4184,21.344 -151.9504,43.531 41.3321,39.07 10.8496,54.41 -58.973,30.531 -52.038,-17.182 -116.2406,-35.459 -115.8137,-31.475 0.1067,0.996 27.8867,26.022 62.0692,54.584 100.3422,83.844 76.5465,86.633 -130.1471,12.777 -83.5169,-29.881 -119.2284,-35.235 -117.4141,-18.301 0.5337,4.98 8.4658,13.422 17.1803,19.796 18.4251,12.675 29.4528,78.117 13.5179,79.313 -5.9756,0.448 -32.9018,-16.609 -59.1522,-36.73 -45.9916,-35.708 -79.7112,-41.211 -76.7229,-13.321 2.0279,18.925 33.7208,61.731 58.8686,80.93 29.4516,21.889 89.707,87.654 91.0945,100.603 4.2691,39.843 -188.3753,-62.178 -316.284,-169.055 -50.6157,-41.386 -97.1763,-73.036 -102.9384,-70.595 -19.1716,8.467 -8.9966,122.169 12.7724,156.682 23.9743,36.357 160.5976,149.609 179.5203,148.189 7.9675,-0.598 13.6942,6.001 12.8764,17.108 -3.2715,44.425 -104.2883,19.873 -175.1788,-42.082 -16.5399,-13.82 -75.9061,-80.656 -131.2885,-147.791 -55.3825,-67.135 -107.5991,-123.462 -113.8949,-126.002 -7.185,-1.469 3.7709,25.823 24.6506,61.408 47.5931,78.764 40.1239,93.381 -27.9917,57.324 -27.6019,-13.994 -49.4771,-21.39 -48.8367,-15.413 0.5336,4.98 31.1952,56.9 67.3702,113.427 65.0935,101.549 77.152,129.763 62.2843,140.919 -16.7528,12.302 -133.6354,-113.476 -243.9027,-261.84 -23.4406,-31.376 -56.5918,-69.053 -73.3452,-84.865 -26.5706,-23.109 -30.7678,-24.802 -32.1547,-9.637 -0.9246,10.111 4.6601,24.753 13.5881,33.12 9.0348,9.363 17.8566,44.848 24.6158,98.561 8.3247,77.694 7.8624,82.749 -12.0562,84.244 -31.8699,2.391 -74.6249,-40.589 -123.8542,-125.255 l -45.281,-75.926 -60.0049,11.531 c -82.6979,15.241 -101.4779,36.732 -80.242,94.379 8.537,23.458 30.8043,71.991 48.803,108.796 18.8879,35.734 41.6534,98.287 52.0048,138.678 10.3514,40.391 21.8409,72.664 25.8246,72.365 2.8811,-1.22 29.9134,-11.281 58.6174,-24.48 57.5148,-25.4 120.7209,-35.163 116.5597,-17.781 -1.3515,6.126 -44.1761,37.453 -95.9641,69.453 -50.6853,32.921 -92.514,64.173 -91.9804,69.154 1.4942,13.945 49.1569,18.401 138.0085,13.743 41.8292,-3.138 79.2124,-0.922 83.7298,3.759 7.0428,9.513 -58.973,30.531 -152.4127,48.586 -30.5538,5.305 -63.455,16.81 -72.6672,24.53 -15.5435,14.219 -15.4367,15.215 4.6246,33.792 24.5787,23.258 70.3563,28.86 164.0808,22.832 54.8831,-3.113 70.1423,-1.246 71.423,10.707 3.9489,36.855 -104.3231,57.027 -236.4626,41.839 -21.3416,-2.415 -8.3231,6.649 43.3593,29.881 41.1894,19 74.3046,37.601 74.8383,42.582 0.5336,4.98 -11.5597,13.92 -25.9651,20.021 -21.1634,8.617 -46.4887,6.5 -112.363,-8.639 -105.9964,-24.178 -114.9598,-23.506 -156.575,9.739 -70.1412,57.474 -61.8878,125.133 23.5153,210.097 30.4123,30.853 57.0542,63.997 58.1215,73.958 1.8143,16.933 -4.3747,15.389 -56.0571,-7.843 -31.6924,-14.692 -59.0809,-26.694 -62.0687,-26.47 -1.9918,0.149 2.4194,31.949 9.4628,69.576 12.3439,68.355 6.1908,85.886 -19.7041,59.715 z M 6726.919,13909.487 c -0.5337,-4.98 -4.0551,-9.736 -8.0389,-9.438 -4.9796,0.374 -30.6251,-4.73 -58.3691,-10.682 -44.2126,-9.736 -48.1963,-9.437 -35.8536,2.69 22.4801,22.412 104.2894,36.356 102.2616,17.43 z m 147.747,-354.481 c 25.6095,-13.97 29.8774,-30.356 7.9669,-28.712 -24.8984,1.868 -44.5322,15.39 -43.0381,29.335 1.8144,16.933 3.8063,16.784 35.0712,-0.623 z m -5589.9023,-102.74 c -6.4739,-13.571 -144.6975,-113.65 -177.2791,-127.271 -33.7909,-15.538 55.6673,79.162 107.421,112.431 45.3512,29.732 79.1776,36.231 69.8581,14.84 z"
       id="path297" />
  </g>
  <g
     transform="matrix(0.07884652,0,0,-0.08214378,2052.6652,1310.8642)"
     fill="#000000"
     stroke="none"
     id="g461">
    <path
       d="m 13080,15340 c -52,-11 -178,-36 -280,-56 -241,-45 -399,-87 -650,-172 -260,-88 -346,-121 -495,-192 -356,-168 -654,-407 -1001,-802 -219,-249 -363,-441 -491,-657 -99,-166 -112,-196 -113,-271 -1,-66 -11,-86 -72,-140 -27,-23 -48,-47 -48,-54 0,-31 -122,-259 -161,-301 -24,-26 -74,-62 -118,-85 -46,-24 -112,-73 -167,-123 -56,-50 -145,-115 -230,-167 -76,-47 -174,-109 -219,-138 -44,-29 -105,-59 -135,-68 -30,-8 -73,-23 -95,-34 -48,-24 -431,-268 -530,-338 -96,-68 -146,-91 -218,-104 -74,-13 -117,-33 -206,-98 -74,-54 -651,-404 -1046,-635 -143,-83 -380,-224 -527,-312 -292,-176 -403,-234 -551,-287 -173,-63 -347,-158 -607,-332 -149,-99 -217,-149 -567,-405 -178,-131 -215,-152 -293,-167 -123,-24 -361,-35 -504,-23 l -139,11 -157,-45 c -260,-73 -334,-106 -559,-245 -171,-106 -273,-183 -378,-283 -74,-71 -533,-596 -849,-972 -56,-66 -152,-176 -214,-245 -62,-69 -139,-158 -171,-197 -76,-96 -254,-382 -352,-568 -44,-82 -135,-235 -204,-339 -138,-209 -171,-270 -208,-380 -32,-95 -32,-160 0,-301 14,-60 25,-116 25,-124 0,-7 -39,-56 -87,-108 -183,-198 -265,-330 -299,-479 -21,-96 -15,-255 15,-397 39,-186 43,-224 26,-260 -8,-18 -58,-90 -110,-162 -52,-71 -95,-139 -95,-151 0,-11 25,-60 56,-110 100,-159 144,-240 144,-267 0,-15 -34,-109 -75,-211 -41,-102 -75,-199 -75,-216 0,-42 18,-74 113,-204 114,-156 194,-290 217,-365 13,-42 20,-92 20,-150 0,-105 19,-150 137,-327 44,-66 139,-227 212,-358 152,-273 219,-385 302,-507 55,-80 144,-175 197,-209 15,-10 28,-34 37,-70 15,-59 43,-90 80,-90 37,0 85,-21 96,-42 6,-10 16,-38 23,-62 14,-46 79,-147 118,-183 13,-12 46,-32 73,-44 65,-29 222,-36 354,-16 52,8 102,12 111,10 10,-3 45,-35 79,-73 102,-115 218,-152 357,-116 86,22 108,20 146,-13 46,-40 84,-57 155,-71 94,-19 181,-7 235,32 13,10 80,6 325,-20 169,-17 387,-35 483,-39 254,-11 761,-8 935,7 83,7 218,15 300,19 133,5 154,9 188,29 37,23 39,24 343,22 185,0 362,-6 447,-15 78,-8 181,-15 228,-15 153,0 265,-49 393,-170 40,-39 81,-70 90,-70 37,0 58,-24 106,-121 l 51,-100 77,71 c 100,93 178,131 276,138 l 73,4 -9,46 c -10,54 -55,139 -109,204 -42,51 -47,69 -24,92 13,13 3,25 -90,113 -108,100 -216,179 -293,215 -32,14 -60,19 -111,17 -64,-3 -70,-2 -112,32 -96,78 -245,139 -339,139 -28,0 -95,11 -148,24 -188,48 -351,56 -621,31 -174,-16 -193,-15 -228,18 -20,18 -31,19 -110,13 -147,-11 -1279,-8 -1383,4 -111,12 -236,43 -291,70 -23,12 -48,37 -63,63 -50,85 -115,125 -236,147 -81,15 -89,19 -166,90 -62,59 -133,101 -189,114 -100,23 -101,24 -144,91 -58,90 -95,117 -253,187 l -138,61 v 45 c 0,135 -50,344 -180,747 -45,138 -65,221 -76,305 -9,63 -25,158 -37,210 -29,127 -29,251 1,344 31,97 30,196 -3,262 -33,65 -32,87 10,133 42,47 108,185 125,262 12,54 9,170 -6,260 -6,36 -5,37 75,93 44,31 99,80 122,109 40,49 109,179 109,203 0,20 38,46 125,84 46,21 106,54 132,73 75,56 226,215 394,417 85,102 192,229 237,283 45,54 115,144 154,200 40,56 156,219 258,362 426,593 821,1175 952,1401 35,61 80,153 101,205 31,80 132,400 206,654 28,98 59,142 233,331 84,91 166,182 182,201 44,52 257,245 345,312 42,32 133,96 202,142 166,110 202,141 268,228 50,67 77,90 254,212 259,180 600,401 862,558 229,137 832,533 853,559 8,10 11,29 7,47 -3,18 0,38 7,48 7,9 87,57 178,108 455,251 526,296 615,379 67,64 154,105 335,160 58,18 139,49 180,70 90,45 119,54 293,84 104,18 148,31 203,60 65,33 77,36 160,36 49,0 154,5 233,10 l 143,9 37,-29 c 45,-36 111,-60 166,-60 88,0 269,75 490,205 50,28 230,130 400,225 171,96 456,266 635,380 179,113 372,233 430,267 58,33 188,109 290,168 230,133 486,303 560,372 32,29 71,79 89,114 41,75 69,90 144,76 77,-14 188,-3 250,26 99,45 231,241 287,425 29,97 39,101 141,61 70,-27 84,-30 104,-19 14,8 38,10 62,6 l 38,-6 -35,30 -34,30 h 49 50 l -38,26 c -21,14 -36,28 -33,31 3,3 28,0 56,-7 51,-12 77,-7 50,10 -8,6 -44,19 -80,31 -83,27 -101,44 -39,35 46,-7 46,-7 41,20 -4,22 -2,26 11,21 22,-8 60,24 52,45 -4,10 -32,23 -71,34 -71,19 -83,34 -28,34 53,0 32,16 -39,30 -94,17 -99,24 -38,54 56,29 58,41 8,54 -31,8 -32,9 -43,98 -6,49 -18,104 -28,122 -41,79 -147,152 -251,172 -60,12 -352,8 -445,-5 -38,-6 -51,-3 -84,20 -68,46 -177,65 -401,70 -174,4 -212,2 -295,-15 z"
       id="path459" />
  </g>
</svg>
